# xmcd
#
# Track frame offsets:
#	150
#	9267
#	19480
#	28047
#	38072
#	46632
#	55302
#	64112
#	76210
#	87822
#	97667
#	108400
#	115507
#	126337
#	140580
#	166307
#	177655
#	188645
#	197930
#	206727
#
# Disc length: 2836 seconds
#
# Revision: 1
# Processed by: cddbd v1.4PL0 Copyright (c) Steve Scherf et al.
# Submitted via: audiograbber 1.81.03
#
DISCID=070b1214
DTITLE=Jim Reeves - Jim Reeves Live... On The Road In Pennsylvania
DYEAR=1997
DGENRE=Country
TTITLE0=Yonder Comes a Sucker
TTITLE1=I Missed Me
TTITLE2=I'd Like To Be
TTITLE3=Anna Marie
TTITLE4=Blue Boy
TTITLE5=Softly And Tenderly
TTITLE6=Billy Bayou
TTITLE7=Four Walls
TTITLE8=Mexican Joe
TTITLE9=He'll Have To Go
TTITLE10=According To My Heart
TTITLE11=(Give Me That) Old Time Religion
TTITLE12=(There'll Be) Peace In The Valley (For Me)
TTITLE13=The Blizzard
TTITLE14=Walking The Floor Over You/There Stands The Glass/One By One/Guess Thi
TTITLE14=ngs Happen That Way/I Want To Be With You Always (Medley)
TTITLE15=Wildwood Flower
TTITLE16=Your Old Love Letters
TTITLE17=Am I Losing You
TTITLE18=Bimbo
TTITLE19=Stand At Your Window
EXTD=Reader's Digest Music - Disc 2/3 (Songs 13-20)
EXTT0=
EXTT1=
EXTT2=
EXTT3=
EXTT4=
EXTT5=
EXTT6=
EXTT7=
EXTT8=
EXTT9=
EXTT10=
EXTT11=
EXTT12=
EXTT13=
EXTT14=
EXTT15=
EXTT16=
EXTT17=
EXTT18=
EXTT19=
PLAYORDER=
